<svg width="25" height="25" viewBox="0 0 25 25" fill="none" xmlns="http://www.w3.org/2000/svg">
<path d="M18.7497 15.625V9.375C18.7497 6.42917 18.7497 4.95521 17.834 4.04062C16.9195 3.125 15.4455 3.125 12.4997 3.125H8.33301C5.38717 3.125 3.91322 3.125 2.99863 4.04062C2.08301 4.95521 2.08301 6.42917 2.08301 9.375V15.625C2.08301 18.5708 2.08301 20.0448 2.99863 20.9594C3.91322 21.875 5.38717 21.875 8.33301 21.875H20.833M6.24967 8.33333H14.583M6.24967 12.5H14.583M6.24967 16.6667H10.4163" stroke="black" stroke-width="2" stroke-linecap="round" stroke-linejoin="round"/>
<path d="M18.75 8.33333H19.7917C21.2646 8.33333 22.001 8.33333 22.4583 8.79166C22.9167 9.24896 22.9167 9.98542 22.9167 11.4583V19.7917C22.9167 20.3442 22.6972 20.8741 22.3065 21.2648C21.9158 21.6555 21.3859 21.875 20.8333 21.875C20.2808 21.875 19.7509 21.6555 19.3602 21.2648C18.9695 20.8741 18.75 20.3442 18.75 19.7917V8.33333Z" stroke="black" stroke-width="2" stroke-linecap="round" stroke-linejoin="round"/>
</svg>
