<svg width="15" height="15" viewBox="0 0 15 15" fill="none" xmlns="http://www.w3.org/2000/svg">
<path d="M0.222796 7.425C0.222796 3.44747 3.44747 0.222796 7.425 0.222796C11.4025 0.222796 14.6272 3.44747 14.6272 7.425C14.6272 11.4025 11.4025 14.6272 7.425 14.6272C3.44747 14.6272 0.222796 11.4025 0.222796 7.425Z" fill="#FCA810" stroke="white" stroke-width="0.445592"/>
<path d="M5.594 5.5688C5.594 6.1292 5.1397 6.5835 4.5793 6.5835C4.01889 6.5835 3.56459 6.1292 3.56459 5.5688C3.56459 5.00839 4.01889 4.5541 4.5793 4.5541C5.1397 4.5541 5.594 5.00839 5.594 5.5688Z" fill="white" stroke="white" stroke-width="0.445592"/>
<path d="M11.2854 5.5688C11.2854 6.1292 10.8311 6.5835 10.2707 6.5835C9.7103 6.5835 9.256 6.1292 9.256 5.5688C9.256 5.00839 9.7103 4.5541 10.2707 4.5541C10.8311 4.5541 11.2854 5.00839 11.2854 5.5688Z" fill="white" stroke="white" stroke-width="0.445592"/>
<path d="M11 11C11 11 9.6875 9 7.5 9C5.3125 9 4 11 4 11" stroke="white" stroke-linecap="round" stroke-linejoin="round"/>
</svg>
