<svg width="17" height="17" viewBox="0 0 17 17" fill="none" xmlns="http://www.w3.org/2000/svg">
<path d="M13.2967 15.2454C15.6416 14.0403 17.0822 11.3478 16.9961 8.47057C16.9742 7.73826 16.9541 6.93559 16.7717 6.25823C16.7581 6.2079 16.4481 6.23222 16.4481 6.23222C16.4481 6.23222 16.4045 6.08536 16.3814 6.01276C15.2722 2.53851 11.9129 0.000264021 7.9413 0.000264021H-0.000228699V17.0003H7.9413C9.95632 17.0003 11.8075 16.3411 13.2967 15.2454ZM7.9413 11.8178H5.38731V5.18194H7.9413C9.84268 5.18194 11.392 6.67073 11.392 8.50191C11.392 10.3298 9.84268 11.8178 7.9413 11.8178Z" fill="#608DF9"/>
</svg>
