<svg width="15" height="15" viewBox="0 0 15 15" fill="none" xmlns="http://www.w3.org/2000/svg">
<path d="M7.425 0C3.32442 0 0 3.32442 0 7.425C0 11.5256 3.32442 14.85 7.425 14.85C11.5256 14.85 14.85 11.5256 14.85 7.425C14.85 3.32442 11.5256 0 7.425 0Z" fill="#13C540"/>
<path d="M4.5793 6.80624C5.26275 6.80624 5.8168 6.25219 5.8168 5.56874C5.8168 4.88529 5.26275 4.33124 4.5793 4.33124C3.89584 4.33124 3.3418 4.88529 3.3418 5.56874C3.3418 6.25219 3.89584 6.80624 4.5793 6.80624Z" fill="white"/>
<path d="M10.2707 6.80624C10.9542 6.80624 11.5082 6.25219 11.5082 5.56874C11.5082 4.88529 10.9542 4.33124 10.2707 4.33124C9.58725 4.33124 9.0332 4.88529 9.0332 5.56874C9.0332 6.25219 9.58725 6.80624 10.2707 6.80624Z" fill="white"/>
<path d="M11.1831 8.41076C10.3257 8.24692 9.05901 8.07837 7.42625 8.07837C5.79399 8.07837 4.52679 8.24692 3.6697 8.41076C3.33582 8.47486 3.21875 8.7236 3.21875 8.92234C3.21875 10.7219 4.60747 12.5336 7.426 12.5336C10.2448 12.5336 11.634 10.7222 11.634 8.92234C11.634 8.7236 11.5167 8.47486 11.1831 8.41076ZM10.8851 9.34804C10.8717 9.45744 10.8509 9.5896 10.8195 9.73241C10.7841 9.89081 10.7546 9.96407 10.5061 9.93437C10.0307 9.87769 4.82156 9.87769 4.34636 9.93437C4.09787 9.96382 4.06817 9.89056 4.03303 9.73241C4.00135 9.5896 3.9808 9.45769 3.96744 9.34804C3.94516 9.16415 3.96472 9.03397 4.28498 8.98026C4.82824 8.88918 5.97738 8.72954 7.42575 8.72954C8.87462 8.72954 10.0235 8.88918 10.5668 8.98026C10.8875 9.03397 10.9071 9.1639 10.8851 9.34804Z" fill="white"/>
</svg>
