<svg width="21" height="21" viewBox="0 0 21 21" fill="none" xmlns="http://www.w3.org/2000/svg">
<g clip-path="url(#clip0_402_1839)">
<path d="M10.955 0.168046C10.8282 0.0595955 10.6668 0 10.5 0C10.3332 0 10.1718 0.0595955 10.045 0.168046L0 8.77805V18.9C0 19.457 0.221249 19.9911 0.615076 20.385C1.0089 20.7788 1.54305 21 2.1 21H7.7C7.88565 21 8.0637 20.9263 8.19497 20.795C8.32625 20.6637 8.4 20.4857 8.4 20.3V16.1C8.4 15.5431 8.62125 15.0089 9.01508 14.6151C9.4089 14.2213 9.94305 14 10.5 14C11.057 14 11.5911 14.2213 11.9849 14.6151C12.3788 15.0089 12.6 15.5431 12.6 16.1V20.3C12.6 20.4857 12.6737 20.6637 12.805 20.795C12.9363 20.9263 13.1143 21 13.3 21H18.9C19.457 21 19.9911 20.7788 20.3849 20.385C20.7788 19.9911 21 19.457 21 18.9V8.77805L10.955 0.168046Z" fill="black"/>
</g>
<defs>
<clipPath id="clip0_402_1839">
<rect width="21" height="21" fill="white"/>
</clipPath>
</defs>
</svg>
