<svg width="16" height="19" viewBox="0 0 16 19" fill="none" xmlns="http://www.w3.org/2000/svg">
<circle cx="7.84783" cy="9.49999" r="7.34783" fill="white" stroke="black"/>
<path d="M7.22652 7.63672H8.47457V14H7.22652V7.63672ZM7.84761 6.65234C7.70699 6.65234 7.57613 6.62109 7.45504 6.55859C7.33394 6.49219 7.23824 6.40234 7.16793 6.28906C7.09761 6.17188 7.06246 6.04688 7.06246 5.91406C7.06246 5.77734 7.09761 5.6543 7.16793 5.54492C7.23824 5.43164 7.33394 5.3418 7.45504 5.27539C7.57613 5.20898 7.70699 5.17578 7.84761 5.17578C7.99605 5.17578 8.13082 5.20898 8.25191 5.27539C8.373 5.3418 8.46675 5.43164 8.53316 5.54492C8.60347 5.6543 8.63863 5.77734 8.63863 5.91406C8.63863 6.04688 8.60347 6.17188 8.53316 6.28906C8.46675 6.40234 8.373 6.49219 8.25191 6.55859C8.13082 6.62109 7.99605 6.65234 7.84761 6.65234Z" fill="black"/>
</svg>
