<svg width="20" height="26" viewBox="0 0 20 26" fill="none" xmlns="http://www.w3.org/2000/svg">
<path d="M10 25.5C9.70833 25.5 9.45833 25.4167 9.25 25.25C9.04167 25.0833 8.88542 24.8646 8.78125 24.5937C8.38542 23.4271 7.88542 22.3333 7.28125 21.3125C6.69792 20.2917 5.875 19.0937 4.8125 17.7187C3.75 16.3437 2.88542 15.0312 2.21875 13.7812C1.57292 12.5312 1.25 11.0208 1.25 9.25C1.25 6.8125 2.09375 4.75 3.78125 3.0625C5.48958 1.35417 7.5625 0.5 10 0.5C12.4375 0.5 14.5 1.35417 16.1875 3.0625C17.8958 4.75 18.75 6.8125 18.75 9.25C18.75 11.1458 18.3854 12.7292 17.6563 14C16.9479 15.25 16.125 16.4896 15.1875 17.7187C14.0625 19.2187 13.2083 20.4687 12.625 21.4687C12.0625 22.4479 11.5938 23.4896 11.2188 24.5937C11.1146 24.8854 10.9479 25.1146 10.7188 25.2813C10.5104 25.4271 10.2708 25.5 10 25.5ZM10 12.375C10.875 12.375 11.6146 12.0729 12.2187 11.4687C12.8229 10.8646 13.125 10.125 13.125 9.25C13.125 8.375 12.8229 7.63542 12.2187 7.03125C11.6146 6.42708 10.875 6.125 10 6.125C9.125 6.125 8.38542 6.42708 7.78125 7.03125C7.17708 7.63542 6.875 8.375 6.875 9.25C6.875 10.125 7.17708 10.8646 7.78125 11.4687C8.38542 12.0729 9.125 12.375 10 12.375Z" stroke="white"/>
</svg>
