<svg width="20" height="17" viewBox="0 0 20 17" fill="none" xmlns="http://www.w3.org/2000/svg">
<path d="M16.2857 7.08333H8C7.21143 7.08333 7.14286 7.71658 7.14286 8.5C7.14286 9.28342 7.21143 9.91667 8 9.91667H16.2857C17.0743 9.91667 17.1429 9.28342 17.1429 8.5C17.1429 7.71658 17.0743 7.08333 16.2857 7.08333ZM19.1429 14.1667H8C7.21143 14.1667 7.14286 14.7999 7.14286 15.5833C7.14286 16.3667 7.21143 17 8 17H19.1429C19.9314 17 20 16.3667 20 15.5833C20 14.7999 19.9314 14.1667 19.1429 14.1667ZM8 2.83333H19.1429C19.9314 2.83333 20 2.20008 20 1.41667C20 0.63325 19.9314 0 19.1429 0H8C7.21143 0 7.14286 0.63325 7.14286 1.41667C7.14286 2.20008 7.21143 2.83333 8 2.83333ZM3.42857 7.08333H0.857143C0.0685713 7.08333 0 7.71658 0 8.5C0 9.28342 0.0685713 9.91667 0.857143 9.91667H3.42857C4.21714 9.91667 4.28571 9.28342 4.28571 8.5C4.28571 7.71658 4.21714 7.08333 3.42857 7.08333ZM3.42857 14.1667H0.857143C0.0685713 14.1667 0 14.7999 0 15.5833C0 16.3667 0.0685713 17 0.857143 17H3.42857C4.21714 17 4.28571 16.3667 4.28571 15.5833C4.28571 14.7999 4.21714 14.1667 3.42857 14.1667ZM3.42857 0H0.857143C0.0685713 0 0 0.63325 0 1.41667C0 2.20008 0.0685713 2.83333 0.857143 2.83333H3.42857C4.21714 2.83333 4.28571 2.20008 4.28571 1.41667C4.28571 0.63325 4.21714 0 3.42857 0Z" fill="white"/>
</svg>
