<svg width="29" height="29" viewBox="0 0 29 29" fill="none" xmlns="http://www.w3.org/2000/svg">
<path fill-rule="evenodd" clip-rule="evenodd" d="M11.6594 6.1383V3.5261C11.6594 2.84136 11.6585 2.33487 11.6527 1.96088C11.8583 1.96135 12.0623 1.96829 12.2647 1.98152L12.2796 3.63248C12.3154 6.12648 12.3273 6.26832 12.5539 6.39834C13.3768 6.83567 14.2116 7.43849 14.9034 8.10041L15.7024 8.85688L18.0399 7.41485L19.7081 6.38896C19.8107 6.54958 19.9087 6.71346 20.0018 6.88042C18.8223 7.5611 16.1914 9.19806 16.1914 9.2824C16.1914 9.32968 16.4538 9.68427 16.7638 10.0743C17.4794 10.949 18.8271 12.8875 19.1133 13.443C19.2326 13.6676 19.5307 14.4359 19.7931 15.1569C19.9026 15.4671 20.0099 15.7705 20.0989 16.0216C19.9733 16.2585 19.838 16.4894 19.6937 16.714C19.4493 15.8994 19.0331 14.676 18.7913 14.1167C18.6601 13.8094 18.517 13.5612 18.4693 13.573C18.35 13.5848 14.4621 16.2798 14.4263 16.3743C14.4144 16.4216 14.8318 17.2372 15.3565 18.171C15.7207 18.8271 16.0676 19.4947 16.2738 19.9209C16.1071 20.0134 15.9373 20.1012 15.7647 20.1839C15.5574 19.7575 15.2399 19.1637 14.796 18.3719C14.2951 17.4854 13.8539 16.7526 13.8181 16.7644C13.7624 16.7644 10.3223 19.1927 8.40872 20.5644C8.19694 20.4888 7.98861 20.4059 7.78401 20.3161C8.79145 19.6165 10.5772 18.3125 10.5861 18.2419C10.5861 18.1828 9.94206 17.379 9.14301 16.4452C9.06006 16.3483 8.97865 16.2532 8.89935 16.1605C8.21471 15.3602 7.68678 14.7432 7.67609 14.7432C7.61568 14.7432 5.01398 16.8575 4.18319 17.5661C4.04182 17.3916 3.90647 17.2121 3.77744 17.0278C5.50447 15.8487 14.2832 8.65199 14.2832 8.36044C14.2832 8.19496 13.0309 7.30847 12.3154 6.97751L11.5998 6.64656L7.044 6.6111L3.43164 6.58298C3.55309 6.38255 3.68169 6.18692 3.81707 5.99646H6.86511C9.0953 5.99646 11.087 6.03192 11.2897 6.06738L11.6594 6.1383ZM18.0996 13.1239C18.2546 12.9938 16.6327 10.7362 15.5116 9.53061C15.1419 9.15238 14.8199 8.83324 14.7722 8.84506C14.7006 8.84506 12.9832 10.2989 11.5044 11.5991L10.8246 12.2137L12.3989 14.034C13.2575 15.0387 14.0089 15.8543 14.0447 15.8424C14.1162 15.8188 17.9684 13.2421 18.0996 13.1239ZM13.3052 16.067C13.2218 15.9488 12.5897 15.2042 11.898 14.4004C11.5395 13.9778 11.2035 13.5806 10.9529 13.2844C10.72 13.009 10.5609 12.8209 10.5264 12.7811C10.443 12.6747 10.1448 12.8402 9.39346 13.443C8.84485 13.8803 8.36781 14.294 8.34395 14.3649C8.29625 14.5304 11.0512 17.7573 11.2301 17.7454C11.3136 17.7336 11.8383 17.4027 12.4108 17.0008C13.3291 16.3507 13.4364 16.2325 13.3052 16.067Z" fill="white"/>
<path d="M27.428 22.2514L25.4003 20.2639L20.9257 18.0966C22.2831 16.1664 23.0103 13.8636 23.0077 11.5038C23.0077 5.16058 17.8471 0 11.5038 0C5.16058 0 0 5.16058 0 11.5038C0 17.8471 5.16058 23.0077 11.5038 23.0077C13.8841 23.0104 16.206 22.2706 18.1459 20.8914L20.2238 25.44L22.2513 27.4278C22.5911 27.7677 22.9946 28.0374 23.4387 28.2213C23.8828 28.4053 24.3588 28.5 24.8395 28.5C25.3202 28.5 25.7962 28.4053 26.2403 28.2214C26.6844 28.0375 27.0879 27.7679 27.4278 27.428C27.7677 27.0881 28.0374 26.6846 28.2213 26.2405C28.4053 25.7964 28.5 25.3204 28.5 24.8397C28.5 24.359 28.4054 23.8831 28.2214 23.439C28.0375 22.9949 27.7679 22.5913 27.428 22.2514ZM2.09161 11.5038C2.09161 6.31404 6.31404 2.09161 11.5038 2.09161C16.6936 2.09161 20.9161 6.31404 20.9161 11.5038C20.9161 16.6936 16.6936 20.9161 11.5038 20.9161C6.31404 20.9161 2.09161 16.6936 2.09161 11.5038ZM25.9489 25.9489C25.6545 26.2426 25.2555 26.4076 24.8396 26.4076C24.4237 26.4076 24.0248 26.2426 23.7303 25.9489L21.9976 24.2562L20.0378 19.9929L24.2162 22.0378L25.949 23.7304C26.2427 24.0248 26.4077 24.4237 26.4077 24.8396C26.4076 25.2555 26.2426 25.6544 25.9489 25.9489Z" fill="white"/>
</svg>
