<svg width="30" height="36" viewBox="0 0 30 36" fill="none" xmlns="http://www.w3.org/2000/svg">
<circle cx="2.5" cy="4.5" r="2.5" fill="black"/>
<circle cx="2.5" cy="4.5" r="2.5" fill="black"/>
<circle cx="2.5" cy="4.5" r="2.5" fill="black"/>
<circle cx="2.5" cy="4.5" r="2.5" fill="black"/>
<circle cx="2.5" cy="33.1" r="2.5" fill="black"/>
<circle cx="2.5" cy="33.1" r="2.5" fill="black"/>
<circle cx="2.5" cy="33.1" r="2.5" fill="black"/>
<circle cx="2.5" cy="33.1" r="2.5" fill="black"/>
<circle cx="26.7002" cy="19.9" r="2.5" fill="black"/>
<circle cx="26.7002" cy="19.9" r="2.5" fill="black"/>
<circle cx="26.7002" cy="19.9" r="2.5" fill="black"/>
<circle cx="26.7002" cy="19.9" r="2.5" fill="black"/>
<path d="M2.2002 4.20001L11.0002 19.6" stroke="black" stroke-width="1.5" stroke-linecap="round"/>
<path d="M2.2002 32.8L11.0002 19.6" stroke="black" stroke-width="1.5" stroke-linecap="round"/>
<path d="M11 19.6L24.2 19.6" stroke="black" stroke-width="1.5" stroke-linecap="round"/>
<path d="M15.5002 22.9166C15.2571 22.9166 15.0488 22.8472 14.8752 22.7083C14.7016 22.5694 14.5713 22.3871 14.4845 22.1614C14.1547 21.1892 13.738 20.2778 13.2345 19.4271C12.7484 18.5764 12.0627 17.5781 11.1772 16.4323C10.2918 15.2864 9.57134 14.1927 9.01579 13.151C8.47759 12.1094 8.2085 10.8507 8.2085 9.37498C8.2085 7.34373 8.91162 5.62498 10.3179 4.21873C11.7415 2.79512 13.4689 2.08331 15.5002 2.08331C17.5314 2.08331 19.2502 2.79512 20.6564 4.21873C22.08 5.62498 22.7918 7.34373 22.7918 9.37498C22.7918 10.9548 22.488 12.2743 21.8804 13.3333C21.2901 14.375 20.6043 15.408 19.8231 16.4323C18.8856 17.6823 18.1738 18.7239 17.6877 19.5573C17.2189 20.3732 16.8283 21.2413 16.5158 22.1614C16.429 22.4045 16.2901 22.5955 16.0991 22.7344C15.9255 22.8559 15.7259 22.9166 15.5002 22.9166ZM15.5002 11.9791C16.2293 11.9791 16.8456 11.7274 17.3491 11.2239C17.8526 10.7205 18.1043 10.1041 18.1043 9.37498C18.1043 8.64581 17.8526 8.02949 17.3491 7.52602C16.8456 7.02255 16.2293 6.77081 15.5002 6.77081C14.771 6.77081 14.1547 7.02255 13.6512 7.52602C13.1477 8.02949 12.896 8.64581 12.896 9.37498C12.896 10.1041 13.1477 10.7205 13.6512 11.2239C14.1547 11.7274 14.771 11.9791 15.5002 11.9791Z" fill="black" stroke="black" stroke-width="0.5"/>
</svg>
