<svg width="59" height="67" viewBox="0 0 59 67" fill="none" xmlns="http://www.w3.org/2000/svg">
<path d="M49.5796 8.92073L49.5797 8.92075C54.8579 14.1984 57.8767 21.322 57.9977 28.7851C58.1187 36.2471 55.3334 43.4636 50.2307 48.9093C50.2298 48.9102 50.229 48.9111 50.2281 48.912L49.5767 49.5858L35.79 63.3693C35.79 63.3693 35.7899 63.3693 35.7899 63.3693C34.1299 65.0282 31.9015 65.9941 29.556 66.0714C27.2132 66.1486 24.9286 65.3335 23.1638 63.791L22.708 63.3637L8.92073 49.5796C8.92072 49.5796 8.92071 49.5796 8.92069 49.5796C3.52901 44.1879 0.5 36.8752 0.5 29.2502C0.5 21.6252 3.52903 14.3124 8.92073 8.92073C14.3124 3.52903 21.6252 0.5 29.2502 0.5C36.8752 0.5 44.1879 3.52903 49.5796 8.92073ZM29.2502 19.0002C27.9041 19.0002 26.5713 19.2653 25.3277 19.7804C24.0841 20.2955 22.9541 21.0505 22.0023 22.0023C21.0505 22.9541 20.2955 24.0841 19.7804 25.3277C19.2653 26.5713 19.0002 27.9041 19.0002 29.2502C19.0002 30.5962 19.2653 31.9291 19.7804 33.1727C20.2955 34.4163 21.0505 35.5462 22.0023 36.498C22.9541 37.4498 24.0841 38.2048 25.3277 38.7199C26.5713 39.2351 27.9041 39.5002 29.2502 39.5002C31.9686 39.5002 34.5758 38.4203 36.498 36.498C38.4203 34.5758 39.5002 31.9686 39.5002 29.2502C39.5002 26.5317 38.4203 23.9246 36.498 22.0023C34.5758 20.0801 31.9686 19.0002 29.2502 19.0002Z" fill="#00A2FF" stroke="white"/>
<path d="M28.5 45C32.8761 45 37.0729 43.2616 40.1673 40.1673C43.2616 37.0729 45 32.8761 45 28.5C45 24.1239 43.2616 19.9271 40.1673 16.8327C37.0729 13.7384 32.8761 12 28.5 12C24.1239 12 19.9271 13.7384 16.8327 16.8327C13.7384 19.9271 12 24.1239 12 28.5C12 32.8761 13.7384 37.0729 16.8327 40.1673C19.9271 43.2616 24.1239 45 28.5 45Z" fill="#00A2FF"/>
</svg>
