<svg width="26" height="26" viewBox="0 0 26 26" fill="none" xmlns="http://www.w3.org/2000/svg">
<path fill-rule="evenodd" clip-rule="evenodd" d="M10.4325 5.49218V3.15495C10.4325 2.54227 10.4317 2.08908 10.4265 1.75446C10.6105 1.75489 10.793 1.76111 10.9741 1.77296L10.9874 3.25014C11.0194 5.48161 11.0301 5.60852 11.2329 5.72485C11.9691 6.11615 12.7161 6.65551 13.335 7.24775L14.0499 7.9246L16.1414 6.63436L17.6336 5.71667C17.7255 5.86038 17.8131 6.00701 17.8964 6.15639C16.8409 6.76556 14.4874 8.22987 14.4874 8.30532C14.4874 8.34763 14.7222 8.6649 14.9996 9.01389C15.6399 9.79649 16.8457 11.5309 17.1018 12.028C17.2085 12.2289 17.4753 12.9163 17.71 13.5614C17.8079 13.8387 17.9038 14.11 17.9834 14.3345C17.8711 14.5465 17.7501 14.7532 17.6209 14.9541C17.4022 14.2253 17.03 13.131 16.8137 12.6308C16.6963 12.3558 16.5682 12.1337 16.5256 12.1443C16.4189 12.1549 12.9402 14.5661 12.9082 14.6507C12.8975 14.693 13.271 15.4228 13.7405 16.2582C14.0662 16.8452 14.3766 17.4424 14.561 17.8237C14.4119 17.9065 14.26 17.985 14.1056 18.059C13.9201 17.6776 13.636 17.1463 13.239 16.438C12.7908 15.6449 12.396 14.9892 12.364 14.9997C12.3142 14.9997 9.23602 17.1725 7.52387 18.3998C7.33438 18.3322 7.14797 18.2581 6.9649 18.1777C7.86626 17.5518 9.4642 16.3849 9.47217 16.3217C9.47217 16.2688 8.89595 15.5497 8.181 14.7142C8.10676 14.6274 8.0339 14.5423 7.96291 14.4593C7.35038 13.7434 6.87806 13.1913 6.86849 13.1913C6.81444 13.1913 4.48603 15.0835 3.74299 15.7173C3.61649 15.5612 3.49537 15.4005 3.3799 15.2356C4.92438 14.1813 12.7801 7.74129 12.7801 7.48042C12.7801 7.33236 11.6597 6.53918 11.0194 6.24306L10.3792 5.94694L6.30294 5.91521L3.07031 5.89005C3.17898 5.71072 3.29403 5.53569 3.41516 5.36528H6.14288C8.13832 5.36528 9.92034 5.397 10.1017 5.42873L10.4325 5.49218ZM16.1948 11.7424C16.3335 11.6261 14.8823 9.60613 13.8792 8.52741C13.5484 8.18899 13.2603 7.90345 13.2176 7.91402C13.1536 7.91402 11.617 9.21483 10.2938 10.3782L9.68559 10.9281L11.0941 12.5567C11.8624 13.4557 12.5347 14.1854 12.5667 14.1748C12.6307 14.1537 16.0774 11.8482 16.1948 11.7424ZM11.9051 14.3758C11.8304 14.27 11.2649 13.6037 10.646 12.8846C10.3252 12.5064 10.0245 12.1509 9.80032 11.8859C9.59194 11.6396 9.44966 11.4714 9.41882 11.4357C9.34412 11.3405 9.07735 11.4886 8.40509 12.028C7.91423 12.4193 7.4874 12.7894 7.46606 12.8529C7.42338 13.0009 9.88833 15.8881 10.0484 15.8775C10.1231 15.8669 10.5926 15.5708 11.1048 15.2112C11.9265 14.6296 12.0225 14.5238 11.9051 14.3758Z" fill="black"/>
<path d="M24.5408 19.9092L22.7266 18.1309L18.723 16.1917C19.9375 14.4647 20.5882 12.4042 20.5858 10.2929C20.5858 4.61736 15.9684 0 10.2929 0C4.61736 0 0 4.61736 0 10.2929C0 15.9684 4.61736 20.5858 10.2929 20.5858C12.4226 20.5882 14.5001 19.9263 16.2358 18.6923L18.095 22.7621L19.909 24.5407C20.2131 24.8448 20.5742 25.0861 20.9715 25.2507C21.3689 25.4153 21.7947 25.5 22.2248 25.5C22.6549 25.5 23.0808 25.4153 23.4781 25.2507C23.8755 25.0862 24.2365 24.8449 24.5407 24.5408C24.8448 24.2367 25.0861 23.8757 25.2507 23.4783C25.4153 23.081 25.5 22.6551 25.5 22.225C25.5 21.7949 25.4153 21.3691 25.2507 20.9717C25.0862 20.5743 24.8449 20.2133 24.5408 19.9092ZM1.87144 10.2929C1.87144 5.6494 5.6494 1.87144 10.2929 1.87144C14.9364 1.87144 18.7144 5.6494 18.7144 10.2929C18.7144 14.9364 14.9364 18.7144 10.2929 18.7144C5.6494 18.7144 1.87144 14.9364 1.87144 10.2929ZM23.2174 23.2174C22.954 23.4802 22.5971 23.6278 22.2249 23.6278C21.8528 23.6278 21.4959 23.4802 21.2324 23.2174L19.6821 21.703L17.9285 17.8884L21.6671 19.718L23.2175 21.2324C23.4803 21.4959 23.6279 21.8528 23.6279 22.2249C23.6279 22.5971 23.4803 22.954 23.2174 23.2174Z" fill="black"/>
</svg>
