<svg width="15" height="15" viewBox="0 0 15 15" fill="none" xmlns="http://www.w3.org/2000/svg">
<path d="M7.425 0C3.32442 0 0 3.32442 0 7.425C0 11.5256 3.32442 14.85 7.425 14.85C11.5256 14.85 14.85 11.5256 14.85 7.425C14.85 3.32442 11.5256 0 7.425 0Z" fill="#ADC430"/>
<path d="M4.5793 6.8063C5.26275 6.8063 5.8168 6.25225 5.8168 5.5688C5.8168 4.88535 5.26275 4.3313 4.5793 4.3313C3.89584 4.3313 3.3418 4.88535 3.3418 5.5688C3.3418 6.25225 3.89584 6.8063 4.5793 6.8063Z" fill="white"/>
<path d="M10.2707 6.8063C10.9542 6.8063 11.5082 6.25225 11.5082 5.5688C11.5082 4.88535 10.9542 4.3313 10.2707 4.3313C9.58725 4.3313 9.0332 4.88535 9.0332 5.5688C9.0332 6.25225 9.58725 6.8063 10.2707 6.8063Z" fill="white"/>
<path d="M4 9C4 9 5.3125 11 7.5 11C9.6875 11 11 9 11 9" stroke="white" stroke-linecap="round" stroke-linejoin="round"/>
</svg>
