<svg width="57" height="18" viewBox="0 0 57 18" fill="none" xmlns="http://www.w3.org/2000/svg">
<path d="M3.62109 2.94336C3.58724 3.63737 3.56185 4.38216 3.54492 5.17773C4.9668 5.21159 6.66797 5.21159 8.64844 5.17773C10.9505 5.16081 13.0918 5.12695 15.0723 5.07617C15.3262 5.07617 15.5378 5.14388 15.707 5.2793C15.8932 5.39779 15.9863 5.59245 15.9863 5.86328C15.9525 6.42188 15.6986 6.72656 15.2246 6.77734C13.3796 6.8112 11.2298 6.84505 8.77539 6.87891C6.71029 6.91276 4.94987 6.91276 3.49414 6.87891C3.47721 7.04818 3.46875 7.21745 3.46875 7.38672C3.41797 8.25 3.57878 8.75781 3.95117 8.91016C4.34049 9.04557 4.76367 9.09635 5.2207 9.0625C7.37044 9.14714 9.1224 9.16406 10.4766 9.11328C11.8477 9.0625 13.4303 9.04557 15.2246 9.0625C15.7832 9.04557 16.071 9.32487 16.0879 9.90039C16.0879 10.1204 16.0371 10.3151 15.9355 10.4844C15.834 10.6367 15.6393 10.7298 15.3516 10.7637C13.2357 10.8652 11.4922 10.9076 10.1211 10.8906C8.76693 10.8737 7.01497 10.8737 4.86523 10.8906C3.61263 10.8737 2.74935 10.6029 2.27539 10.0781C1.80143 9.53646 1.57292 8.82552 1.58984 7.94531C1.58984 7.18359 1.61523 6.23568 1.66602 5.10156C1.68294 4.30599 1.7168 3.5612 1.76758 2.86719C1.5306 2.76562 1.39518 2.54557 1.36133 2.20703C1.37826 1.86849 1.47135 1.60612 1.64062 1.41992C1.82682 1.23372 2.04688 1.14062 2.30078 1.14062C4.55208 1.17448 6.64258 1.17448 8.57227 1.14062C10.5189 1.10677 12.6094 1.02214 14.8438 0.886719C15.0977 0.886719 15.3177 0.954427 15.5039 1.08984C15.6901 1.22526 15.7832 1.42839 15.7832 1.69922C15.7663 2.25781 15.5124 2.5625 15.0215 2.61328C13.0072 2.79948 11.2383 2.90104 9.71484 2.91797C8.19141 2.9349 6.54948 2.94336 4.78906 2.94336H3.62109ZM1.20898 15.8164C3.56185 15.9349 5.9401 16.028 8.34375 16.0957C8.32682 15.7741 8.30143 15.4102 8.26758 15.0039C8.16602 13.9883 8.14062 13.0573 8.19141 12.2109C8.22526 11.6354 8.46224 11.3223 8.90234 11.2715C9.54557 11.2376 9.91797 11.5339 10.0195 12.1602C9.98568 13.1081 10.0195 14.0391 10.1211 14.9531C10.1549 15.4102 10.1888 15.8164 10.2227 16.1719C10.6966 16.1888 11.5007 16.2142 12.6348 16.248C13.7689 16.265 15.3516 16.2311 17.3828 16.1465C17.6367 16.1465 17.8483 16.2311 18.0176 16.4004C18.2038 16.5697 18.2969 16.7897 18.2969 17.0605C18.263 17.6191 18.0007 17.8984 17.5098 17.8984C15.0553 17.9323 13.6335 17.9323 13.2441 17.8984C12.8548 17.8646 11.4245 17.8392 8.95312 17.8223C6.48177 17.8392 3.90039 17.7461 1.20898 17.543C0.701172 17.6107 0.413411 17.3652 0.345703 16.8066C0.36263 16.4681 0.447266 16.2227 0.599609 16.0703C0.751953 15.901 0.955078 15.8164 1.20898 15.8164ZM29.5195 6.625C27.1836 6.59115 24.873 6.5319 22.5879 6.44727C22.5879 7.14128 22.5964 7.7168 22.6133 8.17383C22.6302 8.36003 22.6725 8.5293 22.7402 8.68164C22.8079 8.81706 22.9772 8.89323 23.248 8.91016C23.6712 8.94401 24.0775 8.96094 24.4668 8.96094C24.8561 8.94401 25.2793 8.93555 25.7363 8.93555C26.2949 8.91862 26.9382 8.90169 27.666 8.88477C28.4108 8.86784 29.0033 8.82552 29.4434 8.75781H29.5195V8.58008C29.5026 7.91992 29.5026 7.26823 29.5195 6.625ZM22.6133 4.84766C24.7969 4.94922 27.1074 5.00846 29.5449 5.02539V4.74609C29.5618 3.5612 29.528 2.38477 29.4434 1.2168C29.4264 0.624349 29.638 0.251953 30.0781 0.0996094C30.7552 0.0657552 31.1107 0.311198 31.1445 0.835938C31.2461 2.00391 31.2884 3.375 31.2715 4.94922C31.2546 6.42188 31.2461 7.55599 31.2461 8.35156C31.1953 8.85938 30.916 9.16406 30.4082 9.26562V9.41797C30.4251 10.0104 30.1543 10.3151 29.5957 10.332C29.2572 10.3997 28.7324 10.4336 28.0215 10.4336C27.3105 10.4336 26.5573 10.4505 25.7617 10.4844C25.237 10.5013 24.6868 10.5267 24.1113 10.5605C23.5358 10.5775 23.0449 10.5521 22.6387 10.4844C22.097 10.4505 21.6569 10.2305 21.3184 9.82422C20.9967 9.40104 20.8359 8.79167 20.8359 7.99609C20.8698 6.38802 20.8783 5.27083 20.8613 4.64453C20.8444 4.0013 20.8613 3.31576 20.9121 2.58789C20.9121 2.21549 20.946 1.91081 21.0137 1.67383C21.0983 1.41992 21.3691 1.29297 21.8262 1.29297C22.2155 1.34375 22.444 1.46224 22.5117 1.64844C22.5964 1.81771 22.6471 2.10547 22.6641 2.51172C22.6302 3.1888 22.6133 3.96745 22.6133 4.84766ZM36.1211 3.93359C36.5104 3.93359 36.9759 3.94206 37.5176 3.95898C38.2116 4.00977 38.5332 4.28906 38.4824 4.79688C38.4824 5.38932 38.1693 5.65169 37.543 5.58398C37.0182 5.60091 36.5443 5.60938 36.1211 5.60938C36.138 5.76172 36.1465 5.9056 36.1465 6.04102C36.1803 7.1582 36.265 8.4362 36.4004 9.875C36.4342 10.3828 36.1465 10.696 35.5371 10.8145C34.9447 10.8652 34.5977 10.5182 34.4961 9.77344C34.4284 8.13151 34.3945 6.92122 34.3945 6.14258C34.3945 5.34701 34.3607 3.86589 34.293 1.69922C34.3607 1.25911 34.4453 1.00521 34.5469 0.9375C34.6484 0.852865 34.8177 0.79362 35.0547 0.759766C35.5625 0.708984 35.9349 0.954427 36.1719 1.49609C36.1549 2.39323 36.138 3.20573 36.1211 3.93359ZM36.5527 16.7051C36.5697 17.0775 36.485 17.3314 36.2988 17.4668C36.1126 17.5853 35.8926 17.6445 35.6387 17.6445C35.0462 17.6615 34.7415 17.3483 34.7246 16.7051L34.6992 14.4199C34.6315 14.1322 34.5046 13.9121 34.3184 13.7598C34.1322 13.5905 33.7936 13.5059 33.3027 13.5059C31.2884 13.4889 29.6296 13.4974 28.3262 13.5312C27.0228 13.5651 25.6686 13.599 24.2637 13.6328C23.8405 13.6497 23.485 13.6751 23.1973 13.709C22.9095 13.7428 22.6556 13.7513 22.4355 13.7344C21.8939 13.7344 21.6146 13.4551 21.5977 12.8965C21.5977 12.3717 21.8516 12.084 22.3594 12.0332C22.8841 11.9655 23.4766 11.9316 24.1367 11.9316C26.3034 11.9655 28.0046 11.974 29.2402 11.957C30.4759 11.9232 31.8724 11.8724 33.4297 11.8047C34.7669 11.8385 35.6302 12.084 36.0195 12.541C36.4258 12.998 36.612 13.5482 36.5781 14.1914L36.5527 16.7051ZM54.4785 15.0547C54.5124 14.1068 54.4954 13.0065 54.4277 11.7539C54.377 10.4844 54.3854 8.39388 54.4531 5.48242C54.4701 4.53451 54.5208 3.51042 54.6055 2.41016C54.5885 2.07161 54.6478 1.79232 54.7832 1.57227C54.9186 1.33529 55.1387 1.2168 55.4434 1.2168C55.6803 1.19987 55.9004 1.26758 56.1035 1.41992C56.3066 1.55534 56.4167 1.85156 56.4336 2.30859C56.349 3.40885 56.2982 4.44141 56.2812 5.40625C56.2135 8.0638 56.1966 10.0951 56.2305 11.5C56.2812 12.888 56.3151 14.1322 56.332 15.2324C56.2643 15.8757 55.9342 16.1803 55.3418 16.1465C54.7155 16.028 54.4277 15.6641 54.4785 15.0547ZM43.7637 1.90234C44.0684 1.73307 44.4154 1.59766 44.8047 1.49609C45.194 1.39453 45.5749 1.33529 45.9473 1.31836C46.6582 1.28451 47.5215 1.41992 48.5371 1.72461C49.8066 2.14779 50.6107 2.88411 50.9492 3.93359C51.2878 4.96615 51.4316 5.86328 51.3809 6.625C51.3639 7.45443 51.2962 8.32617 51.1777 9.24023C51.0592 10.1543 50.9154 10.9076 50.7461 11.5C50.4583 12.5326 49.959 13.4805 49.248 14.3438C48.554 15.207 47.3861 15.6556 45.7441 15.6895C44.9993 15.791 44.2038 15.7233 43.3574 15.4863C42.4264 15.2493 41.6986 14.7585 41.1738 14.0137C40.666 13.252 40.3021 11.974 40.082 10.1797C40.0651 9.36719 40.0651 8.66471 40.082 8.07227C40.1159 7.32747 40.1667 6.74349 40.2344 6.32031C40.319 5.88021 40.3952 5.55013 40.4629 5.33008C40.8861 4.06055 41.5039 3.06185 42.3164 2.33398C42.6549 2.08008 42.985 2.04622 43.3066 2.23242C43.4421 2.11393 43.5944 2.00391 43.7637 1.90234ZM43.2305 3.88281C42.875 4.30599 42.5703 4.75456 42.3164 5.22852C42.1641 5.60091 42.0456 6.00716 41.9609 6.44727C41.8763 6.88737 41.8086 7.47982 41.7578 8.22461C41.6901 8.58008 41.6901 9.1556 41.7578 9.95117C41.9609 11.3561 42.2148 12.321 42.5195 12.8457C42.8242 13.3704 43.2812 13.7259 43.8906 13.9121C44.5508 14.1152 45.1602 14.1829 45.7188 14.1152C46.7005 14.0983 47.4284 13.8444 47.9023 13.3535C48.3763 12.8626 48.7656 12.0586 49.0703 10.9414C49.2734 10.2305 49.4089 9.53646 49.4766 8.85938C49.5612 8.16536 49.6035 7.50521 49.6035 6.87891C49.6204 6.13411 49.5612 5.45703 49.4258 4.84766C49.2904 4.22135 48.8164 3.73047 48.0039 3.375C47.276 3.12109 46.6243 3.01107 46.0488 3.04492C45.5579 3.06185 45.1771 3.13802 44.9062 3.27344C44.6354 3.39193 44.3053 3.60352 43.916 3.9082C43.679 4.06055 43.4505 4.05208 43.2305 3.88281Z" fill="black"/>
</svg>
