<svg width="103" height="49" viewBox="0 0 103 49" fill="none" xmlns="http://www.w3.org/2000/svg">
<g clip-path="url(#clip0_24_336)">
<path d="M35.1155 26.93H26.9255V30.47H36.4655V34.61H12.2555V30.47H22.0655V26.93H13.9655V9.56H34.7255V13.7H18.7955V16.13H34.4255V20.27H18.8255V22.76H35.1155V26.93ZM38.861 22.91V9.53H43.721V12.35H47.921V9.56H52.781V22.91H38.861ZM55.871 28.88H39.431V24.74H60.731V35.27H55.871V28.88ZM64.031 18.02H60.641V23.45H55.781V9.53H60.641V13.88H64.031V18.02ZM43.721 18.77H47.921V16.49H43.721V18.77ZM81.0627 14.57C80.8827 17.35 80.6827 19.98 80.4627 22.46C80.2427 24.92 79.9527 27.33 79.5927 29.69C79.4327 30.67 79.1227 31.47 78.6627 32.09C78.2227 32.73 77.6827 33.23 77.0427 33.59C76.4227 33.95 75.7327 34.2 74.9727 34.34C74.2327 34.48 73.4827 34.55 72.7227 34.55C71.7227 34.55 70.7827 34.46 69.9027 34.28C69.0427 34.12 68.2927 33.83 67.6527 33.41C67.0327 33.01 66.5527 32.48 66.2127 31.82C65.8727 31.16 65.7427 30.34 65.8227 29.36C66.0427 26.98 66.2427 24.62 66.4227 22.28C66.6227 19.92 66.8927 17.43 67.2327 14.81C67.3727 13.71 67.6727 12.81 68.1327 12.11C68.5927 11.41 69.1527 10.86 69.8127 10.46C70.4727 10.04 71.2027 9.76 72.0027 9.62C72.8027 9.46 73.6127 9.38 74.4327 9.38C75.2327 9.38 76.0427 9.47 76.8627 9.65C77.6827 9.81 78.4127 10.1 79.0527 10.52C79.7127 10.92 80.2327 11.45 80.6127 12.11C80.9927 12.77 81.1427 13.59 81.0627 14.57ZM74.9427 28.31C75.0627 27.37 75.1827 26.44 75.3027 25.52C75.4227 24.6 75.5327 23.66 75.6327 22.7C75.7527 21.74 75.8627 20.73 75.9627 19.67C76.0627 18.61 76.1627 17.48 76.2627 16.28C76.3427 15.24 76.1727 14.52 75.7527 14.12C75.3527 13.7 74.8727 13.49 74.3127 13.49C74.0327 13.49 73.7627 13.53 73.5027 13.61C73.2627 13.69 73.0327 13.84 72.8127 14.06C72.5927 14.26 72.4027 14.55 72.2427 14.93C72.0827 15.29 71.9627 15.76 71.8827 16.34C71.7227 17.5 71.5827 18.59 71.4627 19.61C71.3627 20.63 71.2627 21.63 71.1627 22.61C71.0627 23.57 70.9727 24.52 70.8927 25.46C70.8127 26.4 70.7327 27.36 70.6527 28.34C70.6127 28.84 70.6527 29.24 70.7727 29.54C70.9127 29.82 71.0827 30.03 71.2827 30.17C71.5027 30.31 71.7327 30.4 71.9727 30.44C72.2327 30.46 72.4727 30.47 72.6927 30.47C72.9127 30.47 73.1427 30.45 73.3827 30.41C73.6227 30.37 73.8427 30.28 74.0427 30.14C74.2627 29.98 74.4527 29.76 74.6127 29.48C74.7727 29.2 74.8827 28.81 74.9427 28.31ZM88.8327 34.61H83.9727V9.53H88.8327V34.61Z" fill="#1D1B20"/>
</g>
<rect x="1.5" y="1.5" width="100" height="46" rx="14.5" stroke="black" stroke-width="3"/>
<defs>
<clipPath id="clip0_24_336">
<rect width="103" height="49" rx="16" fill="white"/>
</clipPath>
</defs>
</svg>
