<svg width="54" height="55" viewBox="0 0 54 55" fill="none" xmlns="http://www.w3.org/2000/svg">
<g clip-path="url(#clip0_542_702)">
<path d="M26.197 1.91805C32.1895 1.40055 37.7713 5.60617 41.7482 9.70492C47.0357 15.148 49.4957 21.9262 49.3663 29.4881C49.4545 35.3587 47.047 40.7212 42.202 44.038C33.1138 50.4562 17.5288 51.1855 7.98884 45.3805C5.68259 43.9255 4.16571 41.4299 3.90696 38.7187C3.60509 35.3887 3.75321 32.2124 3.72321 28.7943C3.91071 24.6018 1.74509 23.9362 1.88009 21.5587C2.29821 19.0406 6.56759 15.6562 8.42384 13.7305C11.422 10.8974 14.6413 8.11867 17.9563 5.61555C20.3151 3.79305 23.1801 2.13555 26.1632 1.91993L26.1951 1.91618L26.197 1.91805Z" fill="white" stroke="black" stroke-width="3.75" stroke-miterlimit="10"/>
<path d="M38.4912 46.5787C39.5075 47.7224 40.7862 49.093 42.2975 50.6024C42.56 50.8649 45.9856 54.238 46.3568 54.2587C46.8012 54.283 49.6006 52.5299 50.5193 51.7518C51.3725 51.0299 52.4937 49.153 52.5706 48.613C52.64 48.1274 50.8212 46.1343 48.3631 43.678C47.435 42.7499 46.3437 41.7168 45.0687 40.4437" fill="black"/>
<path d="M38.4912 46.5787C39.5075 47.7224 40.7862 49.093 42.2975 50.6024C42.56 50.8649 45.9856 54.238 46.3568 54.2587C46.8012 54.283 49.6006 52.5299 50.5193 51.7518C51.3725 51.0299 52.4937 49.153 52.5706 48.613C52.64 48.1274 50.8212 46.1343 48.3631 43.678C47.435 42.7499 46.3437 41.7168 45.0687 40.4437" stroke="black" stroke-width="1.3125" stroke-miterlimit="10"/>
<path d="M26.634 8.10559C24.324 8.65497 22.2915 10.6668 20.2177 11.9437C17.1765 14.13 14.0546 16.41 11.5233 19.2187C10.6346 20.1843 10.5427 21.3731 10.5446 22.8356C10.5146 25.0593 10.4771 27.5418 10.449 29.8031C10.4152 32.6475 10.359 34.5918 10.3477 37.2618C10.2727 39.5831 10.464 41.7056 13.1677 42.1612C19.914 43.2506 26.8852 42.8325 33.6446 42.0693C35.2158 41.8575 36.8283 41.6362 38.3265 41.115C40.974 40.3612 42.3183 37.8056 42.3408 35.1975C42.4327 32.835 42.3165 29.3118 42.3127 26.6456C42.3033 25.2468 42.2808 23.5387 42.2658 22.3125C42.3165 20.8612 41.9396 19.7962 40.9515 18.7968C38.574 16.2543 34.9758 13.6575 32.0771 11.3775C30.3877 10.2675 28.6777 8.34184 26.6565 8.10559H26.634Z" fill="white" stroke="black" stroke-width="2.8125" stroke-miterlimit="10"/>
<path d="M20.4297 31.0574H14.7109V36.6824H20.4297V31.0574Z" fill="url(#paint0_linear_542_702)"/>
<path d="M37.7227 31.0574H32.0039V36.6824H37.7227V31.0574Z" fill="url(#paint1_linear_542_702)"/>
<path d="M29.8662 28.5243H22.835V32.0868H29.8662V28.5243Z" fill="url(#paint2_linear_542_702)"/>
<path d="M20.3359 23.6512H14.8047V31.0574H20.3359V23.6512Z" fill="black" stroke="black" stroke-width="0.1875" stroke-miterlimit="10"/>
<path d="M37.6758 23.6512H32.0508V31.0574H37.6758V23.6512Z" fill="black" stroke="black" stroke-width="0.1875" stroke-miterlimit="10"/>
<path d="M29.7256 23.6943H22.9756V30.0693H29.7256V23.6943Z" fill="black" stroke="black" stroke-width="0.1875" stroke-miterlimit="10"/>
<path d="M29.4653 32.743H22.9966V43.4305H29.4653V32.743Z" fill="black" stroke="black" stroke-width="0.1875" stroke-miterlimit="10"/>
<path d="M28.4528 38.8837C28.8971 38.8837 29.2572 38.5269 29.2572 38.0868C29.2572 37.6467 28.8971 37.2899 28.4528 37.2899C28.0086 37.2899 27.6484 37.6467 27.6484 38.0868C27.6484 38.5269 28.0086 38.8837 28.4528 38.8837Z" fill="white" stroke="black" stroke-width="0.1875" stroke-miterlimit="10"/>
</g>
<defs>
<linearGradient id="paint0_linear_542_702" x1="17.5703" y1="36.6899" x2="17.5703" y2="31.4343" gradientUnits="userSpaceOnUse">
<stop stop-color="#FFFAFA"/>
<stop offset="1" stop-color="#E6E6E7"/>
</linearGradient>
<linearGradient id="paint1_linear_542_702" x1="34.8633" y1="-6.52671e-05" x2="34.8633" y2="-6.52671e-05" gradientUnits="userSpaceOnUse">
<stop stop-color="#FFFAFA"/>
<stop offset="1" stop-color="#E6E6E7"/>
</linearGradient>
<linearGradient id="paint2_linear_542_702" x1="26.3506" y1="32.0905" x2="26.3506" y2="28.7624" gradientUnits="userSpaceOnUse">
<stop stop-color="#FFFAFA"/>
<stop offset="1" stop-color="#E6E6E7"/>
</linearGradient>
<clipPath id="clip0_542_702">
<rect width="53.2312" height="54.915" fill="white"/>
</clipPath>
</defs>
</svg>
