<svg width="55" height="24" viewBox="0 0 55 24" fill="none" xmlns="http://www.w3.org/2000/svg">
<path d="M9.88477 6.36133H0.457031V5.75781H9.88477V6.36133ZM5.51953 6.0332H4.80469V4.06445H5.51953V6.0332ZM8.77148 4.44531H1.66992V3.83008H8.77148V4.44531ZM8.69531 1.66797H2.39062V4.1875H1.66992V1.06445H8.69531V1.66797ZM5.16797 7.19336C5.90234 7.19336 6.53516 7.26562 7.06641 7.41016C7.59766 7.55469 8.00391 7.76562 8.28516 8.04297C8.57031 8.31641 8.71289 8.65039 8.71289 9.04492C8.71289 9.43555 8.57031 9.76953 8.28516 10.0469C8.00391 10.3242 7.59961 10.5332 7.07227 10.6738C6.54492 10.8184 5.91016 10.8945 5.16797 10.9023C4.42578 10.8945 3.78906 10.8184 3.25781 10.6738C2.72656 10.5332 2.31836 10.3242 2.0332 10.0469C1.75195 9.76953 1.61133 9.43555 1.61133 9.04492C1.61133 8.65039 1.75195 8.31641 2.0332 8.04297C2.31836 7.76562 2.72656 7.55469 3.25781 7.41016C3.79297 7.26562 4.42969 7.19336 5.16797 7.19336ZM5.16797 7.79102C4.59375 7.79102 4.0957 7.8418 3.67383 7.94336C3.25195 8.04102 2.92773 8.18359 2.70117 8.37109C2.47461 8.55859 2.36133 8.7832 2.36133 9.04492C2.36133 9.30273 2.47461 9.52539 2.70117 9.71289C2.92773 9.90039 3.25195 10.043 3.67383 10.1406C4.0957 10.2422 4.59375 10.293 5.16797 10.293C5.74219 10.293 6.23828 10.2422 6.65625 10.1406C7.07812 10.043 7.40234 9.90039 7.62891 9.71289C7.85547 9.52148 7.96875 9.29883 7.96875 9.04492C7.96875 8.7832 7.85547 8.55859 7.62891 8.37109C7.40234 8.18359 7.07812 8.04102 6.65625 7.94336C6.23438 7.8418 5.73828 7.79102 5.16797 7.79102ZM12.1055 7.81445H11.373V1.73828H12.1055V7.81445ZM12.0059 7.58008C12.6699 7.58398 13.2969 7.56055 13.8867 7.50977C14.4766 7.45898 15.0898 7.36719 15.7266 7.23438L15.8379 7.89062C15.1738 8.02344 14.543 8.11523 13.9453 8.16602C13.3516 8.2168 12.7051 8.24219 12.0059 8.24219H11.373V7.58008H12.0059ZM19.6406 10.9141H18.9316V0.572266H19.6406V10.9141ZM16.957 4.75H14.2676V4.12891H16.957V4.75ZM17.4316 10.3633H16.7227V0.847656H17.4316V10.3633ZM32.127 3.94727H29.6484V3.32617H32.127V3.94727ZM32.625 6.74219H31.8809V0.572266H32.625V6.74219ZM29.2324 7.09375C29.9434 7.09375 30.5566 7.16797 31.0723 7.31641C31.5879 7.46484 31.9805 7.68164 32.25 7.9668C32.5234 8.25195 32.6602 8.59375 32.6602 8.99219C32.6602 9.39062 32.5234 9.73242 32.25 10.0176C31.9805 10.3027 31.5879 10.5195 31.0723 10.668C30.5566 10.8164 29.9434 10.8945 29.2324 10.9023C28.5215 10.8945 27.9082 10.8164 27.3926 10.668C26.8809 10.5195 26.4863 10.3027 26.209 10.0176C25.9355 9.73242 25.7988 9.39062 25.7988 8.99219C25.7988 8.59375 25.9355 8.25195 26.209 7.9668C26.4863 7.68164 26.8809 7.46484 27.3926 7.31641C27.9082 7.16797 28.5215 7.09375 29.2324 7.09375ZM29.2324 7.67969C28.6895 7.67969 28.2129 7.73242 27.8027 7.83789C27.3926 7.94336 27.0762 8.0957 26.8535 8.29492C26.6348 8.49414 26.5254 8.72656 26.5254 8.99219C26.5254 9.25391 26.6348 9.48438 26.8535 9.68359C27.0762 9.87891 27.3926 10.0293 27.8027 10.1348C28.2129 10.2402 28.6895 10.293 29.2324 10.293C29.7793 10.293 30.2559 10.2402 30.6621 10.1348C31.0684 10.0293 31.3809 9.87891 31.5996 9.68359C31.8223 9.48438 31.9336 9.25391 31.9336 8.99219C31.9336 8.72656 31.8223 8.49414 31.5996 8.29492C31.3809 8.0957 31.0684 7.94336 30.6621 7.83789C30.2559 7.73242 29.7793 7.67969 29.2324 7.67969ZM27.4746 2.54102C27.4746 3.14648 27.3457 3.7207 27.0879 4.26367C26.834 4.80273 26.4883 5.27539 26.0508 5.68164C25.6133 6.08398 25.1191 6.39453 24.5684 6.61328L24.1816 6.01562C24.6816 5.83203 25.1348 5.5625 25.541 5.20703C25.9512 4.85156 26.2734 4.44141 26.5078 3.97656C26.7422 3.51172 26.8594 3.0332 26.8594 2.54102V1.62109H27.4746V2.54102ZM27.5977 2.5293C27.5977 2.97852 27.7109 3.41602 27.9375 3.8418C28.1641 4.26367 28.4766 4.63867 28.875 4.9668C29.2734 5.29102 29.7148 5.54102 30.1992 5.7168L29.8066 6.31445C29.2676 6.11133 28.7852 5.82031 28.3594 5.44141C27.9375 5.05859 27.6035 4.61523 27.3574 4.11133C27.1113 3.60742 26.9883 3.08008 26.9883 2.5293V1.62109H27.5977V2.5293ZM29.9941 2.00195H24.4395V1.375H29.9941V2.00195ZM43.9453 9.54883H34.4766V8.92188H43.9453V9.54883ZM39.5391 9.13281H38.8184V6.33789H39.5391V9.13281ZM36.375 3.2793H42.0234V1.32812H42.75V6.58984H35.6309V1.32812H36.375V3.2793ZM42.0234 5.96875V3.89453H36.375V5.96875H42.0234ZM5.13867 20.1289C5.87695 20.1289 6.51562 20.2031 7.05469 20.3516C7.59375 20.5 8.00977 20.7168 8.30273 21.002C8.59961 21.2832 8.74805 21.6211 8.74805 22.0156C8.74805 22.3984 8.59961 22.7285 8.30273 23.0059C8.00977 23.2871 7.5918 23.502 7.04883 23.6504C6.50586 23.8027 5.86914 23.8789 5.13867 23.8789C4.4043 23.8789 3.76562 23.8027 3.22266 23.6504C2.68359 23.502 2.26758 23.2871 1.97461 23.0059C1.68164 22.7285 1.53516 22.3984 1.53516 22.0156C1.53516 21.6211 1.68164 21.2832 1.97461 21.002C2.26758 20.7168 2.68359 20.5 3.22266 20.3516C3.76562 20.2031 4.4043 20.1289 5.13867 20.1289ZM5.13867 20.709C4.56836 20.709 4.06641 20.7637 3.63281 20.873C3.19922 20.9785 2.86328 21.1309 2.625 21.3301C2.38672 21.5254 2.26758 21.7539 2.26758 22.0156C2.26758 22.2656 2.38672 22.4883 2.625 22.6836C2.86328 22.875 3.19922 23.0215 3.63281 23.123C4.06641 23.2285 4.56836 23.2812 5.13867 23.2812C5.70898 23.2812 6.20898 23.2285 6.63867 23.123C7.07227 23.0215 7.4082 22.875 7.64648 22.6836C7.88867 22.4883 8.00977 22.2656 8.00977 22.0156C8.00977 21.7539 7.88867 21.5254 7.64648 21.3301C7.4082 21.1309 7.07422 20.9785 6.64453 20.873C6.21484 20.7637 5.71289 20.709 5.13867 20.709ZM8.34961 14.7383H1.59961V14.123H8.34961V14.7383ZM9.87305 19.0742H0.462891V18.459H9.87305V19.0742ZM5.20312 18.6699H4.48242V16.3965H5.20312V18.6699ZM8.64844 15.0078C8.64844 15.5625 8.63281 16.0371 8.60156 16.4316C8.57422 16.8262 8.49609 17.2637 8.36719 17.7441L7.64648 17.6504C7.77148 17.1699 7.84766 16.7422 7.875 16.3672C7.90625 15.9922 7.92188 15.5391 7.92188 15.0078V14.123H8.64844V15.0078ZM14.127 23.9141H13.3652V19.9062H14.127V23.9141ZM17.6895 23.9141H16.9512V19.9062H17.6895V23.9141ZM20.2793 20.1348H10.8164V19.5078H20.2793V20.1348ZM15.5273 14.0117C16.2422 14.0117 16.8711 14.1016 17.4141 14.2812C17.9609 14.4609 18.3828 14.7207 18.6797 15.0605C18.9766 15.3965 19.125 15.791 19.125 16.2441C19.125 16.6934 18.9766 17.0859 18.6797 17.4219C18.3828 17.7539 17.9609 18.0117 17.4141 18.1953C16.8711 18.375 16.2422 18.4648 15.5273 18.4648C14.8125 18.4648 14.1836 18.375 13.6406 18.1953C13.0977 18.0117 12.6758 17.7539 12.375 17.4219C12.0742 17.0859 11.9238 16.6934 11.9238 16.2441C11.9238 15.791 12.0723 15.3965 12.3691 15.0605C12.6699 14.7207 13.0918 14.4609 13.6348 14.2812C14.1816 14.1016 14.8125 14.0117 15.5273 14.0117ZM15.5273 14.6211C14.9688 14.6211 14.4746 14.6895 14.0449 14.8262C13.6152 14.959 13.2812 15.1484 13.043 15.3945C12.8047 15.6406 12.6855 15.9238 12.6855 16.2441C12.6855 16.5645 12.8047 16.8477 13.043 17.0938C13.2812 17.3359 13.6152 17.5254 14.0449 17.6621C14.4746 17.7949 14.9688 17.8613 15.5273 17.8613C16.0859 17.8613 16.5801 17.7949 17.0098 17.6621C17.4434 17.5254 17.7793 17.3359 18.0176 17.0938C18.2559 16.8477 18.375 16.5645 18.375 16.2441C18.375 15.9238 18.2559 15.6406 18.0176 15.3945C17.7793 15.1484 17.4434 14.959 17.0098 14.8262C16.5801 14.6895 16.0859 14.6211 15.5273 14.6211ZM32.6074 14.5039H25.002V13.9062H32.6074V14.5039ZM32.584 17.3047H25.0254V16.7188H32.584V17.3047ZM27.4102 17.123H26.6777V14.123H27.4102V17.123ZM30.9375 17.123H30.2051V14.123H30.9375V17.123ZM33.5215 18.8926H24.1055V18.2832H33.5215V18.8926ZM32.291 22.0742H26.0215V23.4395H25.2891V21.5117H31.5703V20.498H25.2656V19.9238H32.291V22.0742ZM32.6191 23.7793H25.2891V23.1934H32.6191V23.7793ZM43.2246 20.6562H42.5156V13.584H43.2246V20.6562ZM42.7559 16.9766H40.6641V16.3555H42.7559V16.9766ZM40.8809 19.7539H40.1895V13.7832H40.8809V19.7539ZM35.6309 18.9453C36.4121 18.9453 37.1016 18.9219 37.6992 18.875C38.2969 18.8242 38.9102 18.7363 39.5391 18.6113L39.6328 19.2207C38.9805 19.3496 38.3535 19.4375 37.752 19.4844C37.1543 19.5312 36.4473 19.5527 35.6309 19.5488H34.9746V18.9453H35.6309ZM38.8535 17.2227H35.6895V19.3555H34.9746V16.6367H38.1445V15.043H34.9453V14.416H38.8535V17.2227ZM40.0781 20.457C40.0781 21.0391 39.8867 21.5664 39.5039 22.0391C39.1211 22.5078 38.627 22.8965 38.0215 23.2051C37.4199 23.5176 36.7871 23.7383 36.123 23.8672L35.8184 23.2812C36.4043 23.1875 36.9746 23.0059 37.5293 22.7363C38.084 22.4668 38.541 22.1348 38.9004 21.7402C39.2637 21.3418 39.4453 20.9141 39.4453 20.457V20.1641H40.0781V20.457ZM40.1777 20.457C40.1777 20.9141 40.3574 21.3418 40.7168 21.7402C41.0762 22.1348 41.5352 22.4668 42.0938 22.7363C42.6523 23.0059 43.2246 23.1875 43.8105 23.2812L43.5059 23.8672C42.8379 23.7383 42.2012 23.5176 41.5957 23.2051C40.9941 22.8965 40.5039 22.5078 40.125 22.0391C39.7461 21.5664 39.5566 21.0391 39.5566 20.457V20.1641H40.1777V20.457ZM54.2637 19.4727H44.8477V18.8574H54.2637V19.4727ZM49.9102 19.2148H49.1836V17.3516H49.9102V19.2148ZM53.3496 14.5449H45.7441V13.918H53.3496V14.5449ZM53.3262 17.5449H45.7676V16.918H53.3262V17.5449ZM48.1523 17.3516H47.4199V14.2285H48.1523V17.3516ZM51.6797 17.3516H50.9473V14.2285H51.6797V17.3516ZM53.1035 23.7617H46.0195V20.5625H53.1035V23.7617ZM46.752 23.1465H52.3828V21.1426H46.752V23.1465Z" fill="#808080"/>
</svg>
