<svg width="55" height="24" viewBox="0 0 55 24" fill="none" xmlns="http://www.w3.org/2000/svg">
<path d="M3.18 10.908C2.444 10.884 1.888 10.692 1.512 10.332C1.136 9.972 0.948 9.524 0.948 8.988C0.948 8.716 0.992 8.464 1.08 8.232C1.168 8 1.3 7.8 1.476 7.632C1.66 7.456 1.892 7.32 2.172 7.224C2.46 7.12 2.804 7.064 3.204 7.056C3.572 7.048 3.908 7.044 4.212 7.044C4.524 7.044 4.824 7.044 5.112 7.044C5.408 7.044 5.708 7.044 6.012 7.044C6.324 7.044 6.664 7.048 7.032 7.056C7.424 7.056 7.764 7.108 8.052 7.212C8.34 7.308 8.572 7.444 8.748 7.62C8.932 7.796 9.068 8 9.156 8.232C9.244 8.464 9.288 8.716 9.288 8.988C9.288 9.524 9.1 9.972 8.724 10.332C8.348 10.692 7.788 10.884 7.044 10.908C6.676 10.916 6.336 10.92 6.024 10.92C5.72 10.928 5.416 10.932 5.112 10.932C4.816 10.932 4.512 10.928 4.2 10.92C3.888 10.92 3.548 10.916 3.18 10.908ZM9.012 4.272H5.532V5.4H9.972V6.192H0.276V5.4H4.692V4.272H1.224V0.624H9V1.416H2.064V3.48H9.012V4.272ZM3.276 10.116C3.844 10.124 4.456 10.128 5.112 10.128C5.776 10.128 6.392 10.124 6.96 10.116C7.52 10.1 7.908 9.992 8.124 9.792C8.34 9.592 8.448 9.328 8.448 9C8.448 8.832 8.424 8.68 8.376 8.544C8.336 8.408 8.26 8.288 8.148 8.184C8.036 8.08 7.88 8 7.68 7.944C7.488 7.888 7.244 7.86 6.948 7.86C6.38 7.852 5.768 7.848 5.112 7.848C4.464 7.848 3.856 7.852 3.288 7.86C2.984 7.86 2.736 7.892 2.544 7.956C2.352 8.012 2.2 8.092 2.088 8.196C1.976 8.292 1.896 8.408 1.848 8.544C1.808 8.68 1.788 8.832 1.788 9C1.788 9.328 1.896 9.592 2.112 9.792C2.328 9.992 2.716 10.1 3.276 10.116ZM15.2942 10.524H11.0462V0.624H11.9102V9.732H15.2942V10.524ZM17.5862 10.644H16.7462V5.712H13.9142V4.92H16.7462V0.611999H17.5862V10.644ZM19.9022 10.644H19.0622V0.611999H19.9022V10.644ZM27.7853 10.896C27.4173 10.888 27.0933 10.82 26.8133 10.692C26.5413 10.572 26.3093 10.412 26.1173 10.212C25.9333 10.012 25.7933 9.784 25.6973 9.528C25.6013 9.28 25.5533 9.024 25.5533 8.76C25.5533 8.488 25.5973 8.224 25.6853 7.968C25.7733 7.712 25.9053 7.488 26.0813 7.296C26.2653 7.096 26.4973 6.936 26.7773 6.816C27.0653 6.688 27.4093 6.62 27.8092 6.612C28.1773 6.604 28.5133 6.6 28.8173 6.6C29.1293 6.6 29.4293 6.6 29.7173 6.6C30.0133 6.6 30.3133 6.6 30.6172 6.6C30.9293 6.6 31.2693 6.604 31.6373 6.612C32.0293 6.612 32.3693 6.676 32.6573 6.804C32.9453 6.924 33.1773 7.084 33.3533 7.284C33.5373 7.484 33.6733 7.712 33.7613 7.968C33.8493 8.224 33.8933 8.488 33.8933 8.76C33.8933 9.024 33.8453 9.28 33.7493 9.528C33.6533 9.784 33.5093 10.012 33.3173 10.212C33.1333 10.412 32.9013 10.572 32.6213 10.692C32.3413 10.82 32.0173 10.888 31.6493 10.896C31.2813 10.904 30.9413 10.908 30.6293 10.908C30.3253 10.916 30.0213 10.92 29.7173 10.92C29.4213 10.92 29.1173 10.916 28.8053 10.908C28.4933 10.908 28.1533 10.904 27.7853 10.896ZM27.8813 10.104C28.4493 10.112 29.0613 10.116 29.7173 10.116C30.3813 10.116 30.9973 10.112 31.5653 10.104C31.8453 10.096 32.0773 10.052 32.2613 9.972C32.4533 9.892 32.6053 9.788 32.7173 9.66C32.8373 9.54 32.9213 9.4 32.9693 9.24C33.0253 9.088 33.0533 8.932 33.0533 8.772C33.0533 8.604 33.0293 8.44 32.9813 8.28C32.9413 8.12 32.8653 7.976 32.7533 7.848C32.6413 7.72 32.4853 7.616 32.2853 7.536C32.0933 7.456 31.8493 7.416 31.5533 7.416C30.9853 7.408 30.3733 7.404 29.7173 7.404C29.0693 7.404 28.4613 7.408 27.8933 7.416C27.5893 7.416 27.3413 7.456 27.1493 7.536C26.9573 7.616 26.8053 7.72 26.6933 7.848C26.5813 7.976 26.5013 8.12 26.4533 8.28C26.4133 8.44 26.3933 8.604 26.3933 8.772C26.3933 8.932 26.4173 9.088 26.4653 9.24C26.5213 9.4 26.6053 9.54 26.7173 9.66C26.8373 9.788 26.9893 9.892 27.1733 9.972C27.3653 10.052 27.6013 10.096 27.8813 10.104ZM28.8653 1.536L30.6893 5.772H29.7653L27.9413 1.536H27.7253L25.7333 5.772H24.8093L26.7533 1.536H24.8573V0.744H30.7733V1.536H28.8653ZM30.4373 3.036H32.8853V0.611999H33.7253V6H32.8853V3.828H30.4373V3.036ZM39.7779 9.852V7.2H36.3099V0.624H37.1499V3.096H43.2579V0.624H44.0979V7.2H40.6179V9.852H45.0459V10.644H35.3619V9.852H39.7779ZM43.2579 3.888H37.1499V6.408H43.2579V3.888ZM3.18 23.908C2.812 23.9 2.488 23.84 2.208 23.728C1.936 23.624 1.704 23.48 1.512 23.296C1.328 23.12 1.188 22.912 1.092 22.672C0.996 22.44 0.948 22.192 0.948 21.928C0.948 21.656 0.992 21.404 1.08 21.172C1.168 20.932 1.3 20.724 1.476 20.548C1.66 20.364 1.892 20.22 2.172 20.116C2.46 20.004 2.804 19.944 3.204 19.936C3.572 19.928 3.908 19.924 4.212 19.924C4.524 19.924 4.824 19.924 5.112 19.924C5.408 19.924 5.708 19.924 6.012 19.924C6.324 19.924 6.664 19.928 7.032 19.936C7.424 19.936 7.764 19.992 8.052 20.104C8.34 20.208 8.572 20.352 8.748 20.536C8.932 20.712 9.068 20.92 9.156 21.16C9.244 21.4 9.288 21.656 9.288 21.928C9.288 22.192 9.24 22.44 9.144 22.672C9.048 22.912 8.904 23.12 8.712 23.296C8.528 23.48 8.296 23.624 8.016 23.728C7.736 23.84 7.412 23.9 7.044 23.908C6.676 23.916 6.336 23.92 6.024 23.92C5.72 23.928 5.416 23.932 5.112 23.932C4.816 23.932 4.512 23.928 4.2 23.92C3.888 23.92 3.548 23.916 3.18 23.908ZM3.276 23.116C3.844 23.124 4.456 23.128 5.112 23.128C5.776 23.128 6.392 23.124 6.96 23.116C7.24 23.108 7.472 23.072 7.656 23.008C7.848 22.944 8 22.86 8.112 22.756C8.232 22.652 8.316 22.528 8.364 22.384C8.42 22.248 8.448 22.1 8.448 21.94C8.448 21.772 8.424 21.616 8.376 21.472C8.336 21.328 8.26 21.204 8.148 21.1C8.036 20.988 7.88 20.9 7.68 20.836C7.488 20.772 7.244 20.74 6.948 20.74C6.38 20.732 5.768 20.728 5.112 20.728C4.464 20.728 3.856 20.732 3.288 20.74C2.984 20.74 2.736 20.772 2.544 20.836C2.352 20.9 2.2 20.988 2.088 21.1C1.976 21.204 1.896 21.328 1.848 21.472C1.808 21.616 1.788 21.772 1.788 21.94C1.788 22.1 1.812 22.248 1.86 22.384C1.916 22.528 2 22.652 2.112 22.756C2.232 22.86 2.384 22.944 2.568 23.008C2.76 23.072 2.996 23.108 3.276 23.116ZM4.224 18.088V15.76H5.064V18.088H9.972V18.88H0.276V18.088H4.224ZM7.908 17.068L8.16 14.452H0.996V13.66H9.108L8.796 17.068H7.908ZM11.1422 16.18C11.1422 15.7 11.2102 15.3 11.3462 14.98C11.4902 14.66 11.6822 14.4 11.9222 14.2C12.1702 14 12.4622 13.852 12.7982 13.756C13.1342 13.66 13.4982 13.604 13.8902 13.588C14.2342 13.572 14.5302 13.56 14.7782 13.552C15.0342 13.544 15.2702 13.54 15.4862 13.54C15.7102 13.54 15.9262 13.544 16.1342 13.552C16.3422 13.56 16.5742 13.572 16.8302 13.588C17.2142 13.612 17.5742 13.672 17.9102 13.768C18.2462 13.864 18.5382 14.012 18.7862 14.212C19.0342 14.404 19.2302 14.66 19.3742 14.98C19.5182 15.3 19.5902 15.7 19.5902 16.18C19.5902 16.66 19.5182 17.064 19.3742 17.392C19.2302 17.712 19.0342 17.972 18.7862 18.172C18.5462 18.372 18.2582 18.52 17.9222 18.616C17.5862 18.704 17.2262 18.76 16.8422 18.784C16.5222 18.8 16.2502 18.816 16.0262 18.832C15.8102 18.84 15.5982 18.844 15.3902 18.844C15.1902 18.844 14.9742 18.84 14.7422 18.832C14.5182 18.816 14.2342 18.8 13.8902 18.784C13.4902 18.76 13.1222 18.704 12.7862 18.616C12.4502 18.52 12.1582 18.372 11.9102 18.172C11.6702 17.972 11.4822 17.712 11.3462 17.392C11.2102 17.064 11.1422 16.66 11.1422 16.18ZM11.9822 16.18C11.9822 16.5 12.0222 16.772 12.1022 16.996C12.1902 17.212 12.3142 17.392 12.4742 17.536C12.6422 17.672 12.8422 17.78 13.0742 17.86C13.3062 17.932 13.5662 17.98 13.8542 18.004C14.0862 18.028 14.3302 18.044 14.5862 18.052C14.8502 18.06 15.1142 18.064 15.3782 18.064C15.6422 18.064 15.9022 18.06 16.1582 18.052C16.4142 18.036 16.6582 18.02 16.8902 18.004C17.1462 17.98 17.3862 17.932 17.6102 17.86C17.8342 17.788 18.0302 17.68 18.1982 17.536C18.3662 17.392 18.4982 17.212 18.5942 16.996C18.6902 16.772 18.7382 16.5 18.7382 16.18C18.7382 15.86 18.6902 15.592 18.5942 15.376C18.5062 15.152 18.3822 14.968 18.2222 14.824C18.0622 14.68 17.8662 14.572 17.6342 14.5C17.4022 14.428 17.1502 14.384 16.8782 14.368C16.6622 14.36 16.4262 14.352 16.1702 14.344C15.9222 14.328 15.6622 14.32 15.3902 14.32C15.1262 14.32 14.8622 14.324 14.5982 14.332C14.3342 14.34 14.0862 14.352 13.8542 14.368C13.5902 14.392 13.3422 14.44 13.1102 14.512C12.8862 14.584 12.6902 14.692 12.5222 14.836C12.3542 14.972 12.2222 15.152 12.1262 15.376C12.0302 15.592 11.9822 15.86 11.9822 16.18ZM20.2142 20.02V20.812H17.8982V23.86H17.0582V20.812H13.6742V23.86H12.8342V20.812H10.5302V20.02H20.2142ZM32.7308 22.084H25.7828V23.104H32.9108V23.896H24.9428V21.292H31.8908V20.344H24.9428V19.552H32.7308V22.084ZM26.2988 16.288L26.5268 14.836H27.4268L27.1988 16.288H30.4628L30.6908 14.836H31.5908L31.3628 16.288H32.9708V17.08H24.7028V16.288H26.2988ZM33.6908 17.908V18.7H23.9948V17.908H33.6908ZM24.7628 14.416V13.624H32.8988V14.416H24.7628ZM34.6689 13.684H38.9649V16.936H35.5089V18.736H39.1569V19.528H34.6689V16.144H38.1249V14.476H34.6689V13.684ZM43.6689 19.9H42.8289V16.948H41.0769V19.684H40.2369V13.612H41.0769V16.156H42.8289V13.612H43.6689V19.9ZM38.6169 21.352L36.1209 23.908H34.9209L38.1969 20.56H41.3289L43.6929 23.908H42.7209L40.8489 21.352H38.6169ZM53.7776 23.896H45.9896V20.572H53.7776V23.896ZM47.2376 16.912L47.5736 14.944H48.4736L48.1376 16.912H51.4016L51.7376 14.944H52.6376L52.3016 16.912H54.0176V17.704H50.2976V18.82H54.7376V19.612H45.0416V18.82H49.4576V17.704H45.7496V16.912H47.2376ZM52.9376 21.364H46.8296V23.104H52.9376V21.364ZM45.8096 14.416V13.624H53.9456V14.416H45.8096Z" fill="#808080"/>
</svg>
